<mxfile host="Electron" modified="2024-02-15T18:43:45.552Z" agent="Mozilla/5.0 (Windows NT 10.0; Win64; x64) AppleWebKit/537.36 (KHTML, like Gecko) draw.io/23.0.2 Chrome/120.0.6099.109 Electron/28.1.0 Safari/537.36" etag="ZO3i2B-niDJoNv0DNNZO" version="23.0.2" type="device">
  <diagram id="3ET_8zo-GePrdZHqEnzk" name="Página-1">
    <mxGraphModel dx="1434" dy="854" grid="1" gridSize="10" guides="1" tooltips="1" connect="1" arrows="1" fold="1" page="1" pageScale="1" pageWidth="827" pageHeight="1169" math="0" shadow="0">
      <root>
        <mxCell id="0" />
        <mxCell id="1" parent="0" />
        <mxCell id="mUjXztgoR0FgH-cJJg0s-21" value="IPhone" style="html=1;whiteSpace=wrap;" parent="1" vertex="1">
          <mxGeometry x="359" y="70" width="110" height="50" as="geometry" />
        </mxCell>
        <mxCell id="bmYYZ4TZPq_hbASh39-R-12" style="edgeStyle=orthogonalEdgeStyle;rounded=0;orthogonalLoop=1;jettySize=auto;html=1;exitX=0.5;exitY=0;exitDx=0;exitDy=0;entryX=0.5;entryY=1;entryDx=0;entryDy=0;dashed=1;" edge="1" parent="1" source="mUjXztgoR0FgH-cJJg0s-24" target="bmYYZ4TZPq_hbASh39-R-8">
          <mxGeometry relative="1" as="geometry" />
        </mxCell>
        <mxCell id="mUjXztgoR0FgH-cJJg0s-24" value="«interface»&lt;br&gt;Aparelho Telefônico&lt;hr&gt;&lt;div style=&quot;text-align: left;&quot;&gt;+ ligar():void&lt;br&gt;+ atender():void&lt;br&gt;+ iniciarCorreioVoz:void&lt;br&gt;&lt;/div&gt;" style="html=1;whiteSpace=wrap;" parent="1" vertex="1">
          <mxGeometry x="329" y="261" width="170" height="110" as="geometry" />
        </mxCell>
        <mxCell id="bmYYZ4TZPq_hbASh39-R-11" style="edgeStyle=orthogonalEdgeStyle;rounded=0;orthogonalLoop=1;jettySize=auto;html=1;exitX=0.5;exitY=0;exitDx=0;exitDy=0;entryX=0.5;entryY=1;entryDx=0;entryDy=0;dashed=1;" edge="1" parent="1" source="mUjXztgoR0FgH-cJJg0s-25" target="bmYYZ4TZPq_hbASh39-R-6">
          <mxGeometry relative="1" as="geometry" />
        </mxCell>
        <mxCell id="mUjXztgoR0FgH-cJJg0s-25" value="«interface»&lt;br&gt;Navegador de Internet&lt;hr&gt;&lt;div style=&quot;text-align: left;&quot;&gt;+ exibirPagina():void&lt;br&gt;+ adicionarNovaAba():void&lt;br&gt;+ atualizarPagina():void&lt;br&gt;&lt;/div&gt;" style="html=1;whiteSpace=wrap;" parent="1" vertex="1">
          <mxGeometry x="519" y="261" width="170" height="110" as="geometry" />
        </mxCell>
        <mxCell id="bmYYZ4TZPq_hbASh39-R-9" value="" style="edgeStyle=orthogonalEdgeStyle;rounded=0;orthogonalLoop=1;jettySize=auto;html=1;dashed=1;" edge="1" parent="1" source="mUjXztgoR0FgH-cJJg0s-27" target="bmYYZ4TZPq_hbASh39-R-4">
          <mxGeometry relative="1" as="geometry" />
        </mxCell>
        <mxCell id="mUjXztgoR0FgH-cJJg0s-27" value="«interface»&lt;br&gt;Reprodutor Musical&lt;hr&gt;&lt;div style=&quot;text-align: left;&quot;&gt;&lt;span style=&quot;background-color: initial;&quot;&gt;+ tocar():void&lt;/span&gt;&lt;/div&gt;&lt;div style=&quot;text-align: left;&quot;&gt;&lt;span style=&quot;background-color: initial;&quot;&gt;+ pausar():void&lt;/span&gt;&lt;/div&gt;&lt;div style=&quot;text-align: left;&quot;&gt;&lt;span style=&quot;background-color: initial;&quot;&gt;+ selecionarMusica():Void&lt;/span&gt;&lt;/div&gt;" style="html=1;whiteSpace=wrap;" parent="1" vertex="1">
          <mxGeometry x="139" y="261" width="170" height="110" as="geometry" />
        </mxCell>
        <mxCell id="bmYYZ4TZPq_hbASh39-R-15" style="edgeStyle=orthogonalEdgeStyle;rounded=0;orthogonalLoop=1;jettySize=auto;html=1;exitX=0.5;exitY=0;exitDx=0;exitDy=0;entryX=0.5;entryY=1;entryDx=0;entryDy=0;" edge="1" parent="1" source="bmYYZ4TZPq_hbASh39-R-4" target="mUjXztgoR0FgH-cJJg0s-21">
          <mxGeometry relative="1" as="geometry" />
        </mxCell>
        <mxCell id="bmYYZ4TZPq_hbASh39-R-4" value="&lt;p style=&quot;margin:0px;margin-top:4px;text-align:center;&quot;&gt;&lt;br&gt;&lt;b&gt;Reprodutor Musical APP&lt;/b&gt;&lt;/p&gt;&lt;hr&gt;" style="verticalAlign=top;align=left;overflow=fill;fontSize=12;fontFamily=Helvetica;html=1;whiteSpace=wrap;strokeColor=default;" vertex="1" parent="1">
          <mxGeometry x="154" y="160" width="140" height="60" as="geometry" />
        </mxCell>
        <mxCell id="bmYYZ4TZPq_hbASh39-R-16" style="edgeStyle=orthogonalEdgeStyle;rounded=0;orthogonalLoop=1;jettySize=auto;html=1;exitX=0.5;exitY=0;exitDx=0;exitDy=0;entryX=0.5;entryY=1;entryDx=0;entryDy=0;" edge="1" parent="1" source="bmYYZ4TZPq_hbASh39-R-6" target="mUjXztgoR0FgH-cJJg0s-21">
          <mxGeometry relative="1" as="geometry" />
        </mxCell>
        <mxCell id="bmYYZ4TZPq_hbASh39-R-6" value="&lt;p style=&quot;margin:0px;margin-top:4px;text-align:center;&quot;&gt;&lt;br&gt;&lt;b&gt;Navegador de Internet APP&lt;/b&gt;&lt;/p&gt;&lt;hr&gt;" style="verticalAlign=top;align=left;overflow=fill;fontSize=12;fontFamily=Helvetica;html=1;whiteSpace=wrap;" vertex="1" parent="1">
          <mxGeometry x="534" y="160" width="140" height="60" as="geometry" />
        </mxCell>
        <mxCell id="bmYYZ4TZPq_hbASh39-R-13" style="edgeStyle=orthogonalEdgeStyle;rounded=0;orthogonalLoop=1;jettySize=auto;html=1;exitX=0.5;exitY=0;exitDx=0;exitDy=0;entryX=0.5;entryY=1;entryDx=0;entryDy=0;" edge="1" parent="1" source="bmYYZ4TZPq_hbASh39-R-8" target="mUjXztgoR0FgH-cJJg0s-21">
          <mxGeometry relative="1" as="geometry" />
        </mxCell>
        <mxCell id="bmYYZ4TZPq_hbASh39-R-8" value="&lt;p style=&quot;margin:0px;margin-top:4px;text-align:center;&quot;&gt;&lt;br&gt;&lt;b&gt;Aparelho Telefônico APP&lt;/b&gt;&lt;/p&gt;&lt;hr&gt;" style="verticalAlign=top;align=left;overflow=fill;fontSize=12;fontFamily=Helvetica;html=1;whiteSpace=wrap;strokeColor=default;" vertex="1" parent="1">
          <mxGeometry x="344" y="160" width="140" height="60" as="geometry" />
        </mxCell>
      </root>
    </mxGraphModel>
  </diagram>
</mxfile>
